<svg xmlns="http://www.w3.org/2000/svg" width="136" height="40" viewBox="0 0 136 40">
    <g fill="none" fill-rule="evenodd">
        <g>
            <g transform="translate(-448 -614) translate(448 614)">
                <rect width="135.992" height="40" fill="#1B1B1B" rx="4"/>
                <path fill="#FFF" fill-rule="nonzero" d="M47.58 14.431c-.38 0-.718-.053-1.015-.16-.297-.107-.55-.257-.762-.45-.21-.192-.38-.426-.505-.7-.125-.276-.206-.578-.243-.908h1.166c.024.177.066.34.124.49.058.15.14.28.248.39.107.11.241.197.403.261.162.064.36.096.592.096.416 0 .73-.097.941-.293.211-.195.317-.464.317-.807 0-.336-.094-.58-.28-.733-.187-.153-.51-.229-.969-.229h-.743v-.843h.725c.38 0 .649-.086.808-.257.159-.171.238-.41.238-.715 0-.293-.088-.518-.266-.674-.177-.156-.431-.234-.762-.234-.367 0-.642.09-.826.266-.183.178-.309.443-.376.798h-1.147c.08-.666.327-1.172.743-1.517.416-.346.967-.518 1.652-.518.33 0 .63.043.9.128.269.086.5.208.693.367.192.159.342.348.45.568.107.22.16.462.16.724 0 .349-.09.653-.27.912-.181.26-.455.442-.822.546.44.067.775.227 1.005.481.23.254.344.585.344.995 0 .3-.061.573-.183.82-.123.248-.296.46-.519.637-.223.177-.49.315-.799.413-.309.097-.65.146-1.023.146zm5.57 0c-.22 0-.428-.027-.624-.082-.196-.055-.366-.14-.51-.252-.143-.113-.258-.26-.344-.44-.085-.18-.128-.396-.128-.647 0-.28.064-.517.193-.71.128-.192.303-.348.523-.467.22-.12.48-.207.78-.262.3-.055.621-.082.964-.082h.596v-.248c0-.324-.062-.565-.188-.724-.125-.159-.353-.238-.684-.238-.293 0-.512.065-.656.197-.144.131-.23.316-.261.554h-1.074c.024-.28.095-.52.21-.72.117-.198.267-.361.45-.49.184-.128.395-.223.634-.284.238-.06.492-.091.762-.091.269 0 .52.029.752.087.233.058.436.156.61.293.175.138.311.318.409.54.098.224.147.5.147.83v3.145h-1.092v-.587c-.16.208-.352.373-.579.495-.226.122-.523.183-.89.183zm.266-.797c.343 0 .626-.084.85-.252.223-.168.334-.408.334-.72v-.477h-.569c-.422 0-.758.057-1.01.17-.25.113-.376.316-.376.61 0 .201.06.363.18.485.119.123.316.184.591.184zm5.415-3.264v3.97h-1.11V9.545h3.203v.825H58.83zm3.708-.825h1.11v.77c.068-.116.154-.226.258-.33.104-.103.225-.195.362-.275.138-.079.286-.143.445-.192.16-.049.328-.073.505-.073.3 0 .58.055.84.165.26.11.485.269.674.476.19.208.34.463.45.766.11.302.165.646.165 1.031v.073c0 .385-.053.73-.16 1.036-.107.306-.254.565-.44.78-.187.213-.41.377-.67.49-.26.113-.547.17-.859.17-.385 0-.711-.083-.977-.248-.267-.165-.464-.364-.592-.596v2.392h-1.11V9.545zm2.405 4.006c.41 0 .723-.133.94-.398.218-.266.326-.659.326-1.178V11.9c0-.262-.032-.493-.096-.692-.064-.198-.155-.365-.27-.5-.117-.134-.252-.233-.405-.297-.153-.064-.32-.097-.504-.097-.386 0-.703.13-.95.39-.248.26-.372.659-.372 1.196v.074c0 .537.12.935.362 1.191.242.257.565.385.969.385zm5.406.303l-1.9-4.309h1.202l1.276 3.09 1.175-3.09h1.083L70.57 15.98h-1.092l.872-2.126zm7.764-3.09c0 .257-.072.482-.216.674-.143.193-.362.32-.656.38.33.056.59.172.78.35.19.176.285.418.285.723v.028c0 .22-.046.421-.138.605-.092.183-.223.342-.395.476-.17.135-.379.24-.624.317-.244.076-.517.114-.816.114-.643 0-1.137-.146-1.483-.44-.345-.293-.543-.702-.592-1.228h1.02c.048.263.152.466.311.61.16.143.404.215.734.215.288 0 .499-.06.634-.179.134-.119.202-.285.202-.5v-.027c0-.422-.273-.632-.817-.632h-.661v-.743h.569c.25 0 .433-.049.546-.147.113-.097.17-.247.17-.449v-.027c0-.165-.054-.301-.16-.408-.108-.107-.29-.16-.547-.16-.465 0-.752.223-.863.669h-1.01c.031-.275.105-.51.221-.706.116-.196.26-.355.431-.477.172-.122.366-.212.583-.27.217-.058.445-.087.684-.087.257 0 .496.029.716.087.22.058.411.142.574.252.162.11.289.246.38.408.092.162.138.343.138.545v.028zm1.946 3.576V9.545h1.11v3.392l2.075-3.392h1.1v4.795h-1.1v-3.392L81.17 14.34h-1.11zm9.884-3.97h-1.468v3.97h-1.11v-3.97h-1.47v-.825h4.048v.825zm3.57 4.061c-.354 0-.68-.056-.977-.17-.297-.112-.554-.274-.77-.485-.218-.211-.386-.466-.506-.766-.119-.299-.179-.638-.179-1.017v-.073c0-.373.06-.71.18-1.013.119-.303.285-.563.5-.78.214-.216.466-.384.757-.504.29-.119.607-.178.95-.178.3 0 .586.045.858.137.272.092.512.235.72.431.208.196.375.446.5.752.126.305.189.672.189 1.1v.32H92.22c.018.459.139.81.362 1.055.223.244.543.366.96.366.336 0 .593-.064.77-.192.178-.129.288-.309.33-.541h1.074c-.08.507-.312.894-.697 1.16-.386.265-.887.398-1.505.398zm1.12-2.988c-.03-.416-.145-.718-.344-.908-.199-.189-.473-.284-.821-.284-.337 0-.612.106-.826.317-.214.21-.35.502-.404.875h2.395zm5.782-1.898h1.937c.25 0 .483.022.697.065.215.042.4.111.556.206.156.095.278.218.367.371.089.153.133.34.133.56v.018c0 .256-.069.48-.207.669-.137.19-.353.318-.647.385.33.067.59.186.78.357.19.171.285.413.285.724v.028c0 .458-.154.808-.463 1.05-.31.24-.752.362-1.327.362h-2.11V9.545zm1.11.743v1.22h.67c.27 0 .466-.051.588-.152.123-.101.184-.261.184-.481v-.019c0-.22-.069-.37-.207-.449-.137-.08-.338-.119-.6-.119h-.634zm0 1.962v1.347h.79c.288 0 .503-.052.647-.156.144-.104.216-.272.216-.504v-.018c0-.446-.275-.67-.826-.67h-.826zM47.587 22.135H50.2l3.542 10.718H51.67l-.856-2.653h-4.097l-.84 2.653H44l3.587-10.718zm-.405 6.61h3.167l-1.576-4.976-1.591 4.977zm8.105-3.732h1.816v1.26c.11-.19.25-.37.42-.54.17-.17.368-.32.593-.45.225-.13.468-.235.728-.315.26-.08.535-.12.826-.12.49 0 .948.09 1.373.27.425.18.793.44 1.103.78.31.34.556.757.736 1.251.18.495.27 1.057.27 1.687v.12c0 .63-.088 1.194-.263 1.694-.175.5-.415.924-.72 1.274s-.67.617-1.096.802c-.425.185-.893.277-1.403.277-.63 0-1.164-.135-1.599-.404-.435-.27-.758-.595-.968-.975v3.913h-1.816V25.013zm3.932 6.551c.67 0 1.184-.217 1.539-.652.355-.435.533-1.077.533-1.926v-.12c0-.43-.053-.807-.158-1.132-.105-.325-.253-.597-.443-.817-.19-.22-.41-.382-.66-.487-.25-.105-.525-.158-.826-.158-.63 0-1.148.213-1.553.638-.405.424-.608 1.076-.608 1.956v.12c0 .88.198 1.529.593 1.949.395.42.923.63 1.583.63zm5.629-6.55h1.816v1.258c.11-.19.25-.37.42-.54.17-.17.368-.32.593-.449.225-.13.468-.235.728-.315.26-.08.535-.12.826-.12.49 0 .948.09 1.373.27.425.18.793.44 1.103.78.31.34.555.757.736 1.251.18.495.27 1.057.27 1.687v.12c0 .63-.088 1.194-.263 1.694-.175.5-.415.924-.72 1.274-.306.35-.67.617-1.096.802-.425.185-.893.277-1.403.277-.63 0-1.164-.135-1.599-.404-.435-.27-.758-.595-.968-.975v3.913h-1.816V25.013zm3.932 6.55c.67 0 1.184-.217 1.539-.652.355-.435.533-1.077.533-1.926v-.12c0-.43-.053-.807-.158-1.132-.105-.325-.253-.597-.443-.817-.19-.22-.41-.382-.66-.487-.25-.105-.526-.158-.826-.158-.63 0-1.148.213-1.553.638-.405.424-.608 1.076-.608 1.956v.12c0 .88.198 1.529.593 1.949.395.42.923.63 1.583.63zm13.058 1.44c-.73 0-1.358-.088-1.883-.263-.526-.175-.96-.415-1.306-.72-.345-.304-.608-.67-.788-1.094-.18-.425-.29-.892-.33-1.402h1.92c.03.27.088.525.173.765.086.24.216.45.39.63.176.18.411.322.706.427.295.105.668.157 1.118.157.6 0 1.089-.15 1.464-.45.375-.3.563-.7.563-1.199 0-.25-.035-.462-.105-.637-.07-.175-.19-.325-.36-.45-.17-.125-.4-.232-.691-.322-.29-.09-.65-.17-1.08-.24-.641-.09-1.199-.207-1.674-.352-.476-.145-.868-.34-1.179-.585-.31-.245-.542-.547-.697-.907-.156-.36-.233-.79-.233-1.289 0-.44.09-.847.27-1.222.18-.374.433-.7.758-.974.325-.275.718-.49 1.178-.645.46-.155.97-.232 1.531-.232 1.16 0 2.074.26 2.74.78.665.52 1.053 1.294 1.163 2.323h-1.832c-.1-.57-.315-.98-.645-1.23-.33-.249-.805-.374-1.426-.374-.61 0-1.07.13-1.38.39-.31.26-.466.6-.466 1.02 0 .22.028.411.083.576.055.165.165.31.33.435s.39.232.675.322c.285.09.663.17 1.133.24.63.09 1.184.205 1.659.345.475.14.875.335 1.2.585.326.25.569.557.729.922.16.364.24.817.24 1.356 0 .47-.095.905-.285 1.305-.19.4-.458.75-.803 1.049-.346.3-.76.535-1.246.704-.485.17-1.023.255-1.614.255zm8.466-.016c-.78 0-1.371-.2-1.772-.6-.4-.4-.6-.974-.6-1.723v-4.288h-1.05v-1.364h1.05V23.29h1.816v1.724h1.726v1.364h-1.726V30.5c0 .35.078.604.233.764.155.16.378.24.668.24.35 0 .645-.05.885-.15v1.44c-.14.05-.31.094-.51.134-.2.04-.44.06-.72.06zm6.439-1.394c.68 0 1.21-.232 1.59-.697.38-.465.57-1.102.57-1.911v-.105c0-.81-.19-1.447-.57-1.912-.38-.464-.91-.697-1.59-.697s-1.214.23-1.599.69c-.385.46-.578 1.094-.578 1.904v.12c0 .81.19 1.446.57 1.911.38.465.916.697 1.607.697zm-.015 1.41c-.58 0-1.116-.096-1.606-.286-.49-.19-.916-.46-1.276-.809-.36-.35-.64-.77-.84-1.26-.2-.489-.3-1.034-.3-1.633v-.12c0-.61.102-1.162.307-1.657.205-.494.488-.92.848-1.274.36-.355.785-.63 1.276-.824.49-.195 1.025-.293 1.606-.293.57 0 1.1.095 1.59.285.49.19.916.462 1.276.817.36.355.643.777.848 1.267.205.49.308 1.034.308 1.634v.12c0 .61-.103 1.162-.308 1.656-.205.495-.487.92-.848 1.274-.36.355-.785.628-1.275.817-.49.19-1.026.285-1.606.285zm5.733-7.99h1.816v1.468c.25-.5.573-.887.968-1.162.396-.274.923-.417 1.584-.427v1.694c-.4 0-.758.038-1.073.113-.316.075-.583.197-.803.367-.22.17-.388.392-.503.667-.115.275-.173.622-.173 1.042v4.077h-1.816v-7.84zm9.47 7.99c-.58 0-1.112-.093-1.598-.278-.485-.185-.905-.45-1.26-.795-.356-.344-.63-.762-.826-1.251-.195-.49-.293-1.045-.293-1.664v-.12c0-.61.098-1.162.293-1.657.195-.494.468-.92.818-1.274.35-.355.763-.63 1.238-.824.476-.195.994-.293 1.554-.293.49 0 .958.075 1.403.225.446.15.838.385 1.178.705.34.32.613.73.818 1.229.206.5.308 1.1.308 1.799v.525h-5.748c.03.75.227 1.324.592 1.723.366.4.889.6 1.569.6.55 0 .97-.105 1.26-.315.29-.21.471-.504.541-.884h1.756c-.13.83-.51 1.461-1.14 1.896-.63.435-1.451.652-2.462.652zm1.832-4.888c-.05-.68-.238-1.174-.563-1.484-.325-.31-.773-.465-1.343-.465-.55 0-1 .173-1.35.518-.351.344-.571.822-.661 1.431h3.917zM30.748 29.815c-1.12 1.597-2.28 3.184-4.11 3.217-1.8.033-2.377-1.04-4.432-1.04-2.057 0-2.7 1.007-4.4 1.073-1.767.065-3.11-1.724-4.24-3.314-2.308-3.25-4.069-9.189-1.7-13.197 1.173-1.99 3.275-3.25 5.553-3.283 1.734-.031 3.373 1.14 4.433 1.14 1.06 0 3.05-1.406 5.14-1.2.876.035 3.333.344 4.91 2.593-.124.08-2.932 1.672-2.898 4.989.035 3.961 3.562 5.278 3.603 5.296-.031.093-.563 1.88-1.86 3.726zM23.065 8.86c.969-1.106 2.605-1.929 3.955-1.984.173 1.536-.461 3.075-1.398 4.183-.938 1.107-2.475 1.969-3.982 1.854-.205-1.503.555-3.071 1.425-4.053z"/>
            </g>
        </g>
    </g>
</svg>
