<svg xmlns="http://www.w3.org/2000/svg" width="93" height="93" viewBox="0 0 93 93">
    <g fill="none" fill-rule="evenodd">
        <path fill="#333" fill-rule="nonzero" d="M22.459.495h2.44v2.44h-2.44zM27.34.495h2.44v2.44h-2.44zM37.101.495h2.44v2.44h-2.44zM39.542.495h2.44v2.44h-2.44zM41.982.495h2.44v2.44h-2.44zM44.423.495h2.44v2.44h-2.44zM51.744.495h2.44v2.44h-2.44zM59.065.495h2.44v2.44h-2.44zM66.387.495h2.44v2.44h-2.44zM68.827.495h2.44v2.44h-2.44zM24.899 2.935h2.44v2.44h-2.44zM29.78 2.935h2.44v2.44h-2.44zM37.101 2.935h2.44v2.44h-2.44zM41.982 2.935h2.44v2.44h-2.44zM46.863 2.935h2.44v2.44h-2.44zM51.744 2.935h2.44v2.44h-2.44zM54.184 2.935h2.44v2.44h-2.44zM56.625 2.935h2.44v2.44h-2.44zM59.065 2.935h2.44v2.44h-2.44zM63.946 2.935h2.44v2.44h-2.44zM66.387 2.935h2.44v2.44h-2.44zM68.827 2.935h2.44v2.44h-2.44zM24.899 5.375h2.44v2.44h-2.44zM32.22 5.375h2.44v2.44h-2.44zM41.982 5.375h2.44v2.44h-2.44zM44.423 5.375h2.44v2.44h-2.44zM46.863 5.375h2.44v2.44h-2.44zM49.304 5.375h2.44v2.44h-2.44zM56.625 5.375h2.44v2.44h-2.44zM59.065 5.375h2.44v2.44h-2.44zM68.827 5.375h2.44v2.44h-2.44zM22.459 7.816h2.44v2.44h-2.44zM24.899 7.816h2.44v2.44h-2.44zM27.34 7.816h2.44v2.44h-2.44z"/>
        <path fill="#333" fill-rule="nonzero" d="M29.78 7.816h2.44v2.44h-2.44zM32.22 7.816h2.44v2.44h-2.44zM39.542 7.816h2.44v2.44h-2.44zM49.304 7.816h2.44v2.44h-2.44zM54.184 7.816h2.44v2.44h-2.44zM56.625 7.816h2.44v2.44h-2.44zM68.827 7.816h2.44v2.44h-2.44zM22.459 10.256h2.44v2.44h-2.44zM24.899 10.256h2.44v2.44h-2.44zM27.34 10.256h2.44v2.44h-2.44zM32.22 10.256h2.44v2.44h-2.44zM37.101 10.256h2.44v2.44h-2.44zM39.542 10.256h2.44v2.44h-2.44zM44.423 10.256h2.44v2.44h-2.44zM51.744 10.256h2.44v2.44h-2.44zM56.625 10.256h2.44v2.44h-2.44zM61.506 10.256h2.44v2.44h-2.44zM63.946 10.256h2.44v2.44h-2.44zM66.387 10.256h2.44v2.44h-2.44zM68.827 10.256h2.44v2.44h-2.44zM20.018 12.697h2.44v2.44h-2.44zM24.899 12.697h2.44v2.44h-2.44zM27.34 12.697h2.44v2.44h-2.44z"/>
        <path fill="#333" fill-rule="nonzero" d="M29.78 12.697h2.44v2.44h-2.44zM32.22 12.697h2.44v2.44h-2.44zM37.101 12.697h2.44v2.44h-2.44zM46.863 12.697h2.44v2.44h-2.44zM54.184 12.697h2.44v2.44h-2.44zM66.387 12.697h2.44v2.44h-2.44zM68.827 12.697h2.44v2.44h-2.44zM20.018 15.137h2.44v2.44h-2.44zM24.899 15.137h2.44v2.44h-2.44zM29.78 15.137h2.44v2.44h-2.44zM34.66 15.137h2.44v2.44h-2.44zM39.542 15.137h2.44v2.44h-2.44zM44.423 15.137h2.44v2.44h-2.44zM49.304 15.137h2.44v2.44h-2.44zM54.184 15.137h2.44v2.44h-2.44zM59.065 15.137h2.44v2.44h-2.44zM63.946 15.137h2.44v2.44h-2.44zM68.827 15.137h2.44v2.44h-2.44zM27.34 17.578h2.44v2.44h-2.44zM34.66 17.578h2.44v2.44h-2.44zM37.101 17.578h2.44v2.44h-2.44zM39.542 17.578h2.44v2.44h-2.44zM41.982 17.578h2.44v2.44h-2.44zM44.423 17.578h2.44v2.44h-2.44zM49.304 17.578h2.44v2.44h-2.44zM54.184 17.578h2.44v2.44h-2.44zM63.946 17.578h2.44v2.44h-2.44zM68.827 17.578h2.44v2.44h-2.44zM.495 20.018h2.44v2.44H.495zM7.816 20.018h2.44v2.44h-2.44zM12.697 20.018h2.44v2.44h-2.44zM15.137 20.018h2.44v2.44h-2.44zM20.018 20.018h2.44v2.44h-2.44zM24.899 20.018h2.44v2.44h-2.44zM32.22 20.018h2.44v2.44h-2.44zM34.66 20.018h2.44v2.44h-2.44zM39.542 20.018h2.44v2.44h-2.44zM41.982 20.018h2.44v2.44h-2.44zM44.423 20.018h2.44v2.44h-2.44zM49.304 20.018h2.44v2.44h-2.44zM56.625 20.018h2.44v2.44h-2.44zM59.065 20.018h2.44v2.44h-2.44zM61.506 20.018h2.44v2.44h-2.44zM71.268 20.018h2.44v2.44h-2.44zM76.148 20.018h2.44v2.44h-2.44zM.495 22.459h2.44v2.44H.495zM2.935 22.459h2.44v2.44h-2.44zM22.459 22.459h2.44v2.44h-2.44zM24.899 22.459h2.44v2.44h-2.44zM29.78 22.459h2.44v2.44h-2.44zM37.101 22.459h2.44v2.44h-2.44zM39.542 22.459h2.44v2.44h-2.44zM44.423 22.459h2.44v2.44h-2.44zM46.863 22.459h2.44v2.44h-2.44zM51.744 22.459h2.44v2.44h-2.44zM56.625 22.459h2.44v2.44h-2.44zM59.065 22.459h2.44v2.44h-2.44zM63.946 22.459h2.44v2.44h-2.44zM73.708 22.459h2.44v2.44h-2.44zM76.148 22.459h2.44v2.44h-2.44zM83.47 22.459h2.44v2.44h-2.44zM88.35 22.459h2.44v2.44h-2.44zM2.935 24.899h2.44v2.44h-2.44zM5.375 24.899h2.44v2.44h-2.44zM7.816 24.899h2.44v2.44h-2.44zM10.256 24.899h2.44v2.44h-2.44zM15.137 24.899h2.44v2.44h-2.44zM20.018 24.899h2.44v2.44h-2.44zM29.78 24.899h2.44v2.44h-2.44zM32.22 24.899h2.44v2.44h-2.44zM34.66 24.899h2.44v2.44h-2.44zM37.101 24.899h2.44v2.44h-2.44zM41.982 24.899h2.44v2.44h-2.44zM46.863 24.899h2.44v2.44h-2.44zM51.744 24.899h2.44v2.44h-2.44zM56.625 24.899h2.44v2.44h-2.44zM59.065 24.899h2.44v2.44h-2.44zM68.827 24.899h2.44v2.44h-2.44zM73.708 24.899h2.44v2.44h-2.44zM81.03 24.899h2.44v2.44h-2.44zM83.47 24.899h2.44v2.44h-2.44zM85.91 24.899h2.44v2.44h-2.44zM88.35 24.899h2.44v2.44h-2.44zM5.375 27.34h2.44v2.44h-2.44zM7.816 27.34h2.44v2.44h-2.44zM10.256 27.34h2.44v2.44h-2.44zM12.697 27.34h2.44v2.44h-2.44zM27.34 27.34h2.44v2.44h-2.44zM32.22 27.34h2.44v2.44h-2.44zM34.66 27.34h2.44v2.44h-2.44zM39.542 27.34h2.44v2.44h-2.44zM46.863 27.34h2.44v2.44h-2.44zM49.304 27.34h2.44v2.44h-2.44zM51.744 27.34h2.44v2.44h-2.44zM54.184 27.34h2.44v2.44h-2.44zM56.625 27.34h2.44v2.44h-2.44zM59.065 27.34h2.44v2.44h-2.44zM61.506 27.34h2.44v2.44h-2.44zM63.946 27.34h2.44v2.44h-2.44zM66.387 27.34h2.44v2.44h-2.44zM73.708 27.34h2.44v2.44h-2.44zM78.589 27.34h2.44v2.44h-2.44zM81.03 27.34h2.44v2.44h-2.44zM2.935 29.78h2.44v2.44h-2.44zM5.375 29.78h2.44v2.44h-2.44zM10.256 29.78h2.44v2.44h-2.44zM15.137 29.78h2.44v2.44h-2.44zM20.018 29.78h2.44v2.44h-2.44zM22.459 29.78h2.44v2.44h-2.44zM29.78 29.78h2.44v2.44h-2.44zM32.22 29.78h2.44v2.44h-2.44zM37.101 29.78h2.44v2.44h-2.44zM41.982 29.78h2.44v2.44h-2.44zM49.304 29.78h2.44v2.44h-2.44zM51.744 29.78h2.44v2.44h-2.44zM56.625 29.78h2.44v2.44h-2.44zM61.506 29.78h2.44v2.44h-2.44zM68.827 29.78h2.44v2.44h-2.44zM71.268 29.78h2.44v2.44h-2.44zM73.708 29.78h2.44v2.44h-2.44zM76.148 29.78h2.44v2.44h-2.44zM81.03 29.78h2.44v2.44h-2.44zM85.91 29.78h2.44v2.44h-2.44zM88.35 29.78h2.44v2.44h-2.44zM.495 32.22h2.44v2.44H.495zM2.935 32.22h2.44v2.44h-2.44zM10.256 32.22h2.44v2.44h-2.44zM20.018 32.22h2.44v2.44h-2.44zM29.78 32.22h2.44v2.44h-2.44zM32.22 32.22h2.44v2.44h-2.44zM34.66 32.22h2.44v2.44h-2.44zM46.863 32.22h2.44v2.44h-2.44zM49.304 32.22h2.44v2.44h-2.44zM51.744 32.22h2.44v2.44h-2.44zM54.184 32.22h2.44v2.44h-2.44zM59.065 32.22h2.44v2.44h-2.44zM71.268 32.22h2.44v2.44h-2.44zM73.708 32.22h2.44v2.44h-2.44zM76.148 32.22h2.44v2.44h-2.44zM83.47 32.22h2.44v2.44h-2.44zM85.91 32.22h2.44v2.44h-2.44zM88.35 32.22h2.44v2.44h-2.44zM.495 34.66h2.44v2.44H.495zM2.935 34.66h2.44v2.44h-2.44zM7.816 34.66h2.44v2.44h-2.44zM15.137 34.66h2.44v2.44h-2.44zM24.899 34.66h2.44v2.44h-2.44zM27.34 34.66h2.44v2.44h-2.44z"/>
        <path fill="#333" fill-rule="nonzero" d="M29.78 34.66h2.44v2.44h-2.44zM32.22 34.66h2.44v2.44h-2.44zM54.184 34.66h2.44v2.44h-2.44zM56.625 34.66h2.44v2.44h-2.44zM59.065 34.66h2.44v2.44h-2.44zM61.506 34.66h2.44v2.44h-2.44zM63.946 34.66h2.44v2.44h-2.44zM71.268 34.66h2.44v2.44h-2.44zM76.148 34.66h2.44v2.44h-2.44zM78.589 34.66h2.44v2.44h-2.44zM83.47 34.66h2.44v2.44h-2.44zM85.91 34.66h2.44v2.44h-2.44zM88.35 34.66h2.44v2.44h-2.44zM5.375 37.101h2.44v2.44h-2.44zM10.256 37.101h2.44v2.44h-2.44zM12.697 37.101h2.44v2.44h-2.44zM27.34 37.101h2.44v2.44h-2.44z"/>
        <path fill="#333" fill-rule="nonzero" d="M29.78 37.101h2.44v2.44h-2.44zM37.101 37.101h2.44v2.44h-2.44zM39.542 37.101h2.44v2.44h-2.44zM46.863 37.101h2.44v2.44h-2.44zM49.304 37.101h2.44v2.44h-2.44zM51.744 37.101h2.44v2.44h-2.44zM54.184 37.101h2.44v2.44h-2.44zM56.625 37.101h2.44v2.44h-2.44zM59.065 37.101h2.44v2.44h-2.44zM61.506 37.101h2.44v2.44h-2.44zM63.946 37.101h2.44v2.44h-2.44zM66.387 37.101h2.44v2.44h-2.44zM68.827 37.101h2.44v2.44h-2.44zM78.589 37.101h2.44v2.44h-2.44zM2.935 39.542h2.44v2.44h-2.44zM5.375 39.542h2.44v2.44h-2.44zM10.256 39.542h2.44v2.44h-2.44zM15.137 39.542h2.44v2.44h-2.44zM27.34 39.542h2.44v2.44h-2.44z"/>
        <path fill="#333" fill-rule="nonzero" d="M29.78 39.542h2.44v2.44h-2.44zM39.542 39.542h2.44v2.44h-2.44zM46.863 39.542h2.44v2.44h-2.44zM49.304 39.542h2.44v2.44h-2.44zM63.946 39.542h2.44v2.44h-2.44zM68.827 39.542h2.44v2.44h-2.44zM73.708 39.542h2.44v2.44h-2.44zM81.03 39.542h2.44v2.44h-2.44zM83.47 39.542h2.44v2.44h-2.44zM85.91 39.542h2.44v2.44h-2.44zM88.35 39.542h2.44v2.44h-2.44zM.495 41.982h2.44v2.44H.495zM2.935 41.982h2.44v2.44h-2.44zM5.375 41.982h2.44v2.44h-2.44zM10.256 41.982h2.44v2.44h-2.44zM12.697 41.982h2.44v2.44h-2.44zM17.578 41.982h2.44v2.44h-2.44zM20.018 41.982h2.44v2.44h-2.44zM24.899 41.982h2.44v2.44h-2.44zM27.34 41.982h2.44v2.44h-2.44z"/>
        <path fill="#333" fill-rule="nonzero" d="M29.78 41.982h2.44v2.44h-2.44zM32.22 41.982h2.44v2.44h-2.44zM37.101 41.982h2.44v2.44h-2.44zM46.863 41.982h2.44v2.44h-2.44zM51.744 41.982h2.44v2.44h-2.44zM54.184 41.982h2.44v2.44h-2.44zM61.506 41.982h2.44v2.44h-2.44zM71.268 41.982h2.44v2.44h-2.44zM73.708 41.982h2.44v2.44h-2.44zM76.148 41.982h2.44v2.44h-2.44zM78.589 41.982h2.44v2.44h-2.44zM85.91 41.982h2.44v2.44h-2.44zM88.35 41.982h2.44v2.44h-2.44zM.495 44.423h2.44v2.44H.495zM7.816 44.423h2.44v2.44h-2.44zM10.256 44.423h2.44v2.44h-2.44zM12.697 44.423h2.44v2.44h-2.44zM15.137 44.423h2.44v2.44h-2.44zM22.459 44.423h2.44v2.44h-2.44zM24.899 44.423h2.44v2.44h-2.44zM29.78 44.423h2.44v2.44h-2.44zM41.982 44.423h2.44v2.44h-2.44zM44.423 44.423h2.44v2.44h-2.44zM46.863 44.423h2.44v2.44h-2.44zM49.304 44.423h2.44v2.44h-2.44zM54.184 44.423h2.44v2.44h-2.44zM63.946 44.423h2.44v2.44h-2.44zM68.827 44.423h2.44v2.44h-2.44zM71.268 44.423h2.44v2.44h-2.44zM73.708 44.423h2.44v2.44h-2.44zM81.03 44.423h2.44v2.44h-2.44zM85.91 44.423h2.44v2.44h-2.44zM88.35 44.423h2.44v2.44h-2.44zM2.935 46.863h2.44v2.44h-2.44zM12.697 46.863h2.44v2.44h-2.44zM17.578 46.863h2.44v2.44h-2.44zM22.459 46.863h2.44v2.44h-2.44zM24.899 46.863h2.44v2.44h-2.44zM27.34 46.863h2.44v2.44h-2.44zM32.22 46.863h2.44v2.44h-2.44zM37.101 46.863h2.44v2.44h-2.44zM39.542 46.863h2.44v2.44h-2.44zM41.982 46.863h2.44v2.44h-2.44zM44.423 46.863h2.44v2.44h-2.44zM46.863 46.863h2.44v2.44h-2.44zM49.304 46.863h2.44v2.44h-2.44zM51.744 46.863h2.44v2.44h-2.44zM56.625 46.863h2.44v2.44h-2.44zM63.946 46.863h2.44v2.44h-2.44zM68.827 46.863h2.44v2.44h-2.44zM81.03 46.863h2.44v2.44h-2.44zM83.47 46.863h2.44v2.44h-2.44zM85.91 46.863h2.44v2.44h-2.44zM5.375 49.304h2.44v2.44h-2.44zM7.816 49.304h2.44v2.44h-2.44zM15.137 49.304h2.44v2.44h-2.44zM17.578 49.304h2.44v2.44h-2.44zM22.459 49.304h2.44v2.44h-2.44zM34.66 49.304h2.44v2.44h-2.44zM39.542 49.304h2.44v2.44h-2.44zM46.863 49.304h2.44v2.44h-2.44zM51.744 49.304h2.44v2.44h-2.44zM54.184 49.304h2.44v2.44h-2.44zM56.625 49.304h2.44v2.44h-2.44zM61.506 49.304h2.44v2.44h-2.44zM63.946 49.304h2.44v2.44h-2.44zM68.827 49.304h2.44v2.44h-2.44zM73.708 49.304h2.44v2.44h-2.44zM78.589 49.304h2.44v2.44h-2.44zM81.03 49.304h2.44v2.44h-2.44zM85.91 49.304h2.44v2.44h-2.44zM.495 51.744h2.44v2.44H.495zM5.375 51.744h2.44v2.44h-2.44zM17.578 51.744h2.44v2.44h-2.44zM22.459 51.744h2.44v2.44h-2.44zM27.34 51.744h2.44v2.44h-2.44zM39.542 51.744h2.44v2.44h-2.44zM41.982 51.744h2.44v2.44h-2.44zM49.304 51.744h2.44v2.44h-2.44zM59.065 51.744h2.44v2.44h-2.44zM63.946 51.744h2.44v2.44h-2.44zM68.827 51.744h2.44v2.44h-2.44zM71.268 51.744h2.44v2.44h-2.44zM73.708 51.744h2.44v2.44h-2.44zM76.148 51.744h2.44v2.44h-2.44zM81.03 51.744h2.44v2.44h-2.44zM85.91 51.744h2.44v2.44h-2.44zM88.35 51.744h2.44v2.44h-2.44zM.495 54.184h2.44v2.44H.495zM12.697 54.184h2.44v2.44h-2.44zM15.137 54.184h2.44v2.44h-2.44zM29.78 54.184h2.44v2.44h-2.44zM34.66 54.184h2.44v2.44h-2.44zM39.542 54.184h2.44v2.44h-2.44zM44.423 54.184h2.44v2.44h-2.44zM46.863 54.184h2.44v2.44h-2.44zM49.304 54.184h2.44v2.44h-2.44zM51.744 54.184h2.44v2.44h-2.44zM54.184 54.184h2.44v2.44h-2.44zM61.506 54.184h2.44v2.44h-2.44zM63.946 54.184h2.44v2.44h-2.44zM73.708 54.184h2.44v2.44h-2.44zM85.91 54.184h2.44v2.44h-2.44zM88.35 54.184h2.44v2.44h-2.44zM10.256 56.625h2.44v2.44h-2.44zM12.697 56.625h2.44v2.44h-2.44zM22.459 56.625h2.44v2.44h-2.44zM24.899 56.625h2.44v2.44h-2.44zM34.66 56.625h2.44v2.44h-2.44zM44.423 56.625h2.44v2.44h-2.44zM59.065 56.625h2.44v2.44h-2.44zM61.506 56.625h2.44v2.44h-2.44zM71.268 56.625h2.44v2.44h-2.44zM73.708 56.625h2.44v2.44h-2.44zM88.35 56.625h2.44v2.44h-2.44zM.495 59.065h2.44v2.44H.495zM2.935 59.065h2.44v2.44h-2.44zM5.375 59.065h2.44v2.44h-2.44zM10.256 59.065h2.44v2.44h-2.44zM12.697 59.065h2.44v2.44h-2.44zM15.137 59.065h2.44v2.44h-2.44zM17.578 59.065h2.44v2.44h-2.44zM20.018 59.065h2.44v2.44h-2.44zM24.899 59.065h2.44v2.44h-2.44zM27.34 59.065h2.44v2.44h-2.44zM39.542 59.065h2.44v2.44h-2.44zM44.423 59.065h2.44v2.44h-2.44zM46.863 59.065h2.44v2.44h-2.44zM59.065 59.065h2.44v2.44h-2.44zM61.506 59.065h2.44v2.44h-2.44zM63.946 59.065h2.44v2.44h-2.44zM73.708 59.065h2.44v2.44h-2.44zM76.148 59.065h2.44v2.44h-2.44zM81.03 59.065h2.44v2.44h-2.44zM85.91 59.065h2.44v2.44h-2.44zM88.35 59.065h2.44v2.44h-2.44zM2.935 61.506h2.44v2.44h-2.44zM5.375 61.506h2.44v2.44h-2.44zM10.256 61.506h2.44v2.44h-2.44zM12.697 61.506h2.44v2.44h-2.44zM17.578 61.506h2.44v2.44h-2.44zM22.459 61.506h2.44v2.44h-2.44zM24.899 61.506h2.44v2.44h-2.44zM34.66 61.506h2.44v2.44h-2.44zM37.101 61.506h2.44v2.44h-2.44zM44.423 61.506h2.44v2.44h-2.44zM54.184 61.506h2.44v2.44h-2.44zM56.625 61.506h2.44v2.44h-2.44zM59.065 61.506h2.44v2.44h-2.44zM63.946 61.506h2.44v2.44h-2.44zM68.827 61.506h2.44v2.44h-2.44zM73.708 61.506h2.44v2.44h-2.44zM83.47 61.506h2.44v2.44h-2.44zM85.91 61.506h2.44v2.44h-2.44zM88.35 61.506h2.44v2.44h-2.44zM.495 63.946h2.44v2.44H.495zM7.816 63.946h2.44v2.44h-2.44zM10.256 63.946h2.44v2.44h-2.44zM12.697 63.946h2.44v2.44h-2.44zM15.137 63.946h2.44v2.44h-2.44zM22.459 63.946h2.44v2.44h-2.44zM24.899 63.946h2.44v2.44h-2.44zM29.78 63.946h2.44v2.44h-2.44zM34.66 63.946h2.44v2.44h-2.44zM37.101 63.946h2.44v2.44h-2.44zM39.542 63.946h2.44v2.44h-2.44zM49.304 63.946h2.44v2.44h-2.44zM51.744 63.946h2.44v2.44h-2.44zM59.065 63.946h2.44v2.44h-2.44zM68.827 63.946h2.44v2.44h-2.44zM73.708 63.946h2.44v2.44h-2.44zM83.47 63.946h2.44v2.44h-2.44zM88.35 63.946h2.44v2.44h-2.44zM2.935 66.387h2.44v2.44h-2.44zM10.256 66.387h2.44v2.44h-2.44zM20.018 66.387h2.44v2.44h-2.44zM22.459 66.387h2.44v2.44h-2.44zM24.899 66.387h2.44v2.44h-2.44zM32.22 66.387h2.44v2.44h-2.44zM39.542 66.387h2.44v2.44h-2.44zM41.982 66.387h2.44v2.44h-2.44zM44.423 66.387h2.44v2.44h-2.44zM46.863 66.387h2.44v2.44h-2.44zM51.744 66.387h2.44v2.44h-2.44zM59.065 66.387h2.44v2.44h-2.44zM61.506 66.387h2.44v2.44h-2.44zM66.387 66.387h2.44v2.44h-2.44zM71.268 66.387h2.44v2.44h-2.44zM76.148 66.387h2.44v2.44h-2.44zM78.589 66.387h2.44v2.44h-2.44zM81.03 66.387h2.44v2.44h-2.44zM88.35 66.387h2.44v2.44h-2.44zM.495 68.827h2.44v2.44H.495zM2.935 68.827h2.44v2.44h-2.44zM12.697 68.827h2.44v2.44h-2.44zM15.137 68.827h2.44v2.44h-2.44zM17.578 68.827h2.44v2.44h-2.44zM20.018 68.827h2.44v2.44h-2.44zM22.459 68.827h2.44v2.44h-2.44zM29.78 68.827h2.44v2.44h-2.44zM34.66 68.827h2.44v2.44h-2.44zM37.101 68.827h2.44v2.44h-2.44zM39.542 68.827h2.44v2.44h-2.44zM41.982 68.827h2.44v2.44h-2.44zM46.863 68.827h2.44v2.44h-2.44zM49.304 68.827h2.44v2.44h-2.44zM51.744 68.827h2.44v2.44h-2.44zM54.184 68.827h2.44v2.44h-2.44zM56.625 68.827h2.44v2.44h-2.44zM59.065 68.827h2.44v2.44h-2.44zM66.387 68.827h2.44v2.44h-2.44zM68.827 68.827h2.44v2.44h-2.44zM71.268 68.827h2.44v2.44h-2.44zM73.708 68.827h2.44v2.44h-2.44zM76.148 68.827h2.44v2.44h-2.44zM78.589 68.827h2.44v2.44h-2.44zM81.03 68.827h2.44v2.44h-2.44zM83.47 68.827h2.44v2.44h-2.44zM85.91 68.827h2.44v2.44h-2.44zM20.018 71.268h2.44v2.44h-2.44zM32.22 71.268h2.44v2.44h-2.44zM39.542 71.268h2.44v2.44h-2.44zM41.982 71.268h2.44v2.44h-2.44zM51.744 71.268h2.44v2.44h-2.44zM54.184 71.268h2.44v2.44h-2.44zM56.625 71.268h2.44v2.44h-2.44zM59.065 71.268h2.44v2.44h-2.44zM61.506 71.268h2.44v2.44h-2.44zM68.827 71.268h2.44v2.44h-2.44zM78.589 71.268h2.44v2.44h-2.44zM81.03 71.268h2.44v2.44h-2.44zM85.91 71.268h2.44v2.44h-2.44zM88.35 71.268h2.44v2.44h-2.44zM24.899 73.708h2.44v2.44h-2.44zM29.78 73.708h2.44v2.44h-2.44zM32.22 73.708h2.44v2.44h-2.44zM41.982 73.708h2.44v2.44h-2.44zM54.184 73.708h2.44v2.44h-2.44zM66.387 73.708h2.44v2.44h-2.44zM68.827 73.708h2.44v2.44h-2.44zM73.708 73.708h2.44v2.44h-2.44zM78.589 73.708h2.44v2.44h-2.44zM81.03 73.708h2.44v2.44h-2.44zM85.91 73.708h2.44v2.44h-2.44zM88.35 73.708h2.44v2.44h-2.44zM20.018 76.148h2.44v2.44h-2.44zM24.899 76.148h2.44v2.44h-2.44zM34.66 76.148h2.44v2.44h-2.44zM51.744 76.148h2.44v2.44h-2.44zM56.625 76.148h2.44v2.44h-2.44zM59.065 76.148h2.44v2.44h-2.44zM68.827 76.148h2.44v2.44h-2.44zM78.589 76.148h2.44v2.44h-2.44zM81.03 76.148h2.44v2.44h-2.44zM83.47 76.148h2.44v2.44h-2.44zM85.91 76.148h2.44v2.44h-2.44zM88.35 76.148h2.44v2.44h-2.44zM27.34 78.589h2.44v2.44h-2.44z"/>
        <path fill="#333" fill-rule="nonzero" d="M29.78 78.589h2.44v2.44h-2.44zM32.22 78.589h2.44v2.44h-2.44zM37.101 78.589h2.44v2.44h-2.44zM41.982 78.589h2.44v2.44h-2.44zM54.184 78.589h2.44v2.44h-2.44zM59.065 78.589h2.44v2.44h-2.44zM61.506 78.589h2.44v2.44h-2.44zM68.827 78.589h2.44v2.44h-2.44zM71.268 78.589h2.44v2.44h-2.44zM73.708 78.589h2.44v2.44h-2.44zM76.148 78.589h2.44v2.44h-2.44zM78.589 78.589h2.44v2.44h-2.44zM81.03 78.589h2.44v2.44h-2.44zM85.91 78.589h2.44v2.44h-2.44zM88.35 78.589h2.44v2.44h-2.44zM20.018 81.03h2.44v2.44h-2.44zM22.459 81.03h2.44v2.44h-2.44zM24.899 81.03h2.44v2.44h-2.44zM27.34 81.03h2.44v2.44h-2.44z"/>
        <path fill="#333" fill-rule="nonzero" d="M29.78 81.03h2.44v2.44h-2.44zM32.22 81.03h2.44v2.44h-2.44zM37.101 81.03h2.44v2.44h-2.44zM46.863 81.03h2.44v2.44h-2.44zM49.304 81.03h2.44v2.44h-2.44zM54.184 81.03h2.44v2.44h-2.44zM56.625 81.03h2.44v2.44h-2.44zM61.506 81.03h2.44v2.44h-2.44zM63.946 81.03h2.44v2.44h-2.44zM76.148 81.03h2.44v2.44h-2.44zM78.589 81.03h2.44v2.44h-2.44zM88.35 81.03h2.44v2.44h-2.44zM22.459 83.47h2.44v2.44h-2.44zM34.66 83.47h2.44v2.44h-2.44zM39.542 83.47h2.44v2.44h-2.44zM49.304 83.47h2.44v2.44h-2.44zM61.506 83.47h2.44v2.44h-2.44zM63.946 83.47h2.44v2.44h-2.44zM68.827 83.47h2.44v2.44h-2.44zM76.148 83.47h2.44v2.44h-2.44zM78.589 83.47h2.44v2.44h-2.44zM83.47 83.47h2.44v2.44h-2.44zM88.35 83.47h2.44v2.44h-2.44zM32.22 85.91h2.44v2.44h-2.44zM37.101 85.91h2.44v2.44h-2.44zM44.423 85.91h2.44v2.44h-2.44zM51.744 85.91h2.44v2.44h-2.44zM54.184 85.91h2.44v2.44h-2.44zM56.625 85.91h2.44v2.44h-2.44zM59.065 85.91h2.44v2.44h-2.44zM61.506 85.91h2.44v2.44h-2.44zM63.946 85.91h2.44v2.44h-2.44zM68.827 85.91h2.44v2.44h-2.44zM71.268 85.91h2.44v2.44h-2.44zM76.148 85.91h2.44v2.44h-2.44zM81.03 85.91h2.44v2.44h-2.44zM20.018 88.35h2.44v2.44h-2.44zM24.899 88.35h2.44v2.44h-2.44zM27.34 88.35h2.44v2.44h-2.44z"/>
        <path fill="#333" fill-rule="nonzero" d="M29.78 88.35h2.44v2.44h-2.44zM32.22 88.35h2.44v2.44h-2.44zM39.542 88.35h2.44v2.44h-2.44zM41.982 88.35h2.44v2.44h-2.44zM44.423 88.35h2.44v2.44h-2.44zM46.863 88.35h2.44v2.44h-2.44zM49.304 88.35h2.44v2.44h-2.44zM51.744 88.35h2.44v2.44h-2.44zM59.065 88.35h2.44v2.44h-2.44zM61.506 88.35h2.44v2.44h-2.44zM68.827 88.35h2.44v2.44h-2.44zM71.268 88.35h2.44v2.44h-2.44zM73.708 88.35h2.44v2.44h-2.44zM81.03 88.35h2.44v2.44h-2.44zM85.91 88.35h2.44v2.44h-2.44zM88.35 88.35h2.44v2.44h-2.44z"/>
        <path d="M3.057 3.057h11.958v11.958H3.057z"/>
        <path fill="#00B956" fill-rule="nonzero" d="M15.015.495H.495v17.083h17.083V.495h-2.563zm0 14.52H3.057V3.057h11.958v11.958z"/>
        <path d="M76.27 3.057h11.958v11.958H76.27z"/>
        <path fill="#00B956" fill-rule="nonzero" d="M88.229.495H73.708v17.083H90.791V.495H88.23zm0 14.52H76.27V3.057h11.958v11.958z"/>
        <path d="M3.057 76.27h11.958v11.958H3.057z"/>
        <path fill="#00B956" fill-rule="nonzero" d="M15.015 73.708H.495V90.791h17.083V73.708h-2.563zm0 14.52H3.057V76.272h11.958v11.958z"/>
        <g fill="#333" fill-rule="nonzero">
            <path d="M5.375 5.375h7.321v7.321h-7.32z"/>
        </g>
        <g fill="#333" fill-rule="nonzero">
            <path d="M78.589 5.375h7.321v7.321h-7.321z"/>
        </g>
        <g fill="#333" fill-rule="nonzero">
            <path d="M5.375 78.589h7.321v7.321h-7.32z"/>
        </g>
    </g>
</svg>
